<svg width="12" height="12" viewBox="0 0 12 12" fill="none" xmlns="http://www.w3.org/2000/svg">
<path d="M11.6576 8.4799L9.03258 7.3549C8.92044 7.30711 8.79581 7.29704 8.67745 7.32621C8.5591 7.35537 8.45342 7.4222 8.37633 7.51662L7.21383 8.93693C5.38939 8.07673 3.92114 6.60848 3.06094 4.78404L4.48125 3.62154C4.57586 3.54459 4.64283 3.43891 4.67201 3.3205C4.70119 3.20209 4.69099 3.07739 4.64297 2.96529L3.51797 0.340293C3.46526 0.219451 3.37204 0.120788 3.25438 0.061316C3.13672 0.00184408 3.00199 -0.0147088 2.87344 0.0145116L0.435937 0.577012C0.311993 0.605633 0.201409 0.675421 0.122235 0.774984C0.0430606 0.874548 -2.85518e-05 0.998008 1.41942e-08 1.12521C1.41942e-08 7.13693 4.87266 12.0002 10.875 12.0002C11.0022 12.0003 11.1258 11.9572 11.2254 11.8781C11.325 11.7989 11.3948 11.6883 11.4234 11.5643L11.9859 9.12678C12.015 8.99759 11.9981 8.86233 11.9381 8.74426C11.8782 8.6262 11.779 8.53271 11.6576 8.4799Z" fill="black"/>
</svg>
